<svg xmlns="http://www.w3.org/2000/svg" width="270" height="270" fill="none">
	<path fill="url(#B)" d="M0 0h270v270H0z"/>
		<defs>
			<filter id="A" color-interpolation-filters="sRGB" filterUnits="userSpaceOnUse" height="270" width="270">
				<feDropShadow dx="0" dy="1" stdDeviation="2" flood-opacity=".225" width="200%" height="200%"/>
			</filter>
		</defs>
	<path d="M427 264L402 216L306 296Z" fill="#9665eb" stroke="#9665eb"></path><path d="M402 216L298 216L306 296Z" fill="#a77cef" stroke="#a77cef"></path><path d="M306 296L413 388L427 264Z" fill="#8d58e9" stroke="#8d58e9"></path><path d="M298 216L223 305L306 296Z" fill="#6633c0" stroke="#6633c0"></path><path d="M306 296L289 399L413 388Z" fill="#9665eb" stroke="#9665eb"></path><path d="M223 305L289 399L306 296Z" fill="#6030b5" stroke="#6030b5"></path><path d="M413 388L479 376L427 264Z" fill="#6030b5" stroke="#6030b5"></path><path d="M538 284L527 236L427 264Z" fill="#844ce6" stroke="#844ce6"></path><path d="M427 264L527 236L402 216Z" fill="#592ca9" stroke="#592ca9"></path><path d="M307 92L210 193L298 216Z" fill="#592ca9" stroke="#592ca9"></path><path d="M298 216L210 193L223 305Z" fill="#8d58e9" stroke="#8d58e9"></path><path d="M513 61L380 94L402 216Z" fill="#8d58e9" stroke="#8d58e9"></path><path d="M402 216L380 94L298 216Z" fill="#743bd8" stroke="#743bd8"></path><path d="M479 376L538 284L427 264Z" fill="#6030b5" stroke="#6030b5"></path><path d="M380 94L307 92L298 216Z" fill="#592ca9" stroke="#592ca9"></path><path d="M307 92L199 113L210 193Z" fill="#a77cef" stroke="#a77cef"></path><path d="M103 435L201 434L223 305Z" fill="#9665eb" stroke="#9665eb"></path><path d="M223 305L201 434L289 399Z" fill="#6030b5" stroke="#6030b5"></path><path d="M289 399L419 532L413 388Z" fill="#6633c0" stroke="#6633c0"></path><path d="M413 388L488 514L479 376Z" fill="#6030b5" stroke="#6030b5"></path><path d="M134 208L223 305L210 193Z" fill="#6633c0" stroke="#6633c0"></path><path d="M199 113L134 208L210 193Z" fill="#844ce6" stroke="#844ce6"></path><path d="M611 277L596 220L538 284Z" fill="#844ce6" stroke="#844ce6"></path><path d="M538 284L596 220L527 236Z" fill="#743bd8" stroke="#743bd8"></path><path d="M527 236L513 61L402 216Z" fill="#9665eb" stroke="#9665eb"></path><path d="M627 415L611 277L538 284Z" fill="#6633c0" stroke="#6633c0"></path><path d="M585 68L513 61L527 236Z" fill="#6030b5" stroke="#6030b5"></path><path d="M380 94L336 0L307 92Z" fill="#6030b5" stroke="#6030b5"></path><path d="M103 435L199 468L201 434Z" fill="#7b3fe4" stroke="#7b3fe4"></path><path d="M201 434L261 513L289 399Z" fill="#8d58e9" stroke="#8d58e9"></path><path d="M199 468L261 513L201 434Z" fill="#6030b5" stroke="#6030b5"></path><path d="M431 0L336 0L380 94Z" fill="#6d37cc" stroke="#6d37cc"></path><path d="M307 92L197 0L199 113Z" fill="#6633c0" stroke="#6633c0"></path><path d="M261 513L419 532L289 399Z" fill="#8d58e9" stroke="#8d58e9"></path><path d="M479 376L627 415L538 284Z" fill="#592ca9" stroke="#592ca9"></path><path d="M513 61L431 0L380 94Z" fill="#7b3fe4" stroke="#7b3fe4"></path><path d="M419 532L488 514L413 388Z" fill="#6030b5" stroke="#6030b5"></path><path d="M0 211L71 261L134 208Z" fill="#6633c0" stroke="#6633c0"></path><path d="M134 208L71 261L223 305Z" fill="#9665eb" stroke="#9665eb"></path><path d="M197 0L133 78L199 113Z" fill="#844ce6" stroke="#844ce6"></path><path d="M199 113L133 78L134 208Z" fill="#7b3fe4" stroke="#7b3fe4"></path><path d="M596 220L585 68L527 236Z" fill="#a77cef" stroke="#a77cef"></path><path d="M513 61L512 0L431 0Z" fill="#a77cef" stroke="#a77cef"></path><path d="M696 175L585 68L596 220Z" fill="#6d37cc" stroke="#6d37cc"></path><path d="M488 514L627 415L479 376Z" fill="#844ce6" stroke="#844ce6"></path><path d="M574 0L512 0L513 61Z" fill="#a77cef" stroke="#a77cef"></path><path d="M71 261L103 435L223 305Z" fill="#743bd8" stroke="#743bd8"></path><path d="M202 600L273 600L261 513Z" fill="#592ca9" stroke="#592ca9"></path><path d="M336 0L197 0L307 92Z" fill="#6030b5" stroke="#6030b5"></path><path d="M261 513L373 600L419 532Z" fill="#844ce6" stroke="#844ce6"></path><path d="M419 532L464 600L488 514Z" fill="#7b3fe4" stroke="#7b3fe4"></path><path d="M488 514L614 494L627 415Z" fill="#844ce6" stroke="#844ce6"></path><path d="M273 600L373 600L261 513Z" fill="#a77cef" stroke="#a77cef"></path><path d="M599 600L614 494L488 514Z" fill="#8d58e9" stroke="#8d58e9"></path><path d="M585 68L574 0L513 61Z" fill="#743bd8" stroke="#743bd8"></path><path d="M202 600L261 513L199 468Z" fill="#6633c0" stroke="#6633c0"></path><path d="M774 268L696 175L611 277Z" fill="#6d37cc" stroke="#6d37cc"></path><path d="M611 277L696 175L596 220Z" fill="#9665eb" stroke="#9665eb"></path><path d="M585 68L702 0L574 0Z" fill="#6633c0" stroke="#6633c0"></path><path d="M719 338L611 277L627 415Z" fill="#9f70ed" stroke="#9f70ed"></path><path d="M103 435L115 508L199 468Z" fill="#9665eb" stroke="#9665eb"></path><path d="M0 538L115 508L103 435Z" fill="#6633c0" stroke="#6633c0"></path><path d="M373 600L464 600L419 532Z" fill="#6d37cc" stroke="#6d37cc"></path><path d="M739 418L719 338L627 415Z" fill="#6633c0" stroke="#6633c0"></path><path d="M0 79L0 211L134 208Z" fill="#7b3fe4" stroke="#7b3fe4"></path><path d="M71 261L0 323L103 435Z" fill="#9665eb" stroke="#9665eb"></path><path d="M0 79L134 208L133 78Z" fill="#592ca9" stroke="#592ca9"></path><path d="M0 211L0 323L71 261Z" fill="#6d37cc" stroke="#6d37cc"></path><path d="M115 508L202 600L199 468Z" fill="#8d58e9" stroke="#8d58e9"></path><path d="M768 166L723 139L696 175Z" fill="#9665eb" stroke="#9665eb"></path><path d="M696 175L723 139L585 68Z" fill="#a77cef" stroke="#a77cef"></path><path d="M691 600L692 467L614 494Z" fill="#743bd8" stroke="#743bd8"></path><path d="M614 494L692 467L627 415Z" fill="#844ce6" stroke="#844ce6"></path><path d="M197 0L78 0L133 78Z" fill="#8d58e9" stroke="#8d58e9"></path><path d="M0 323L0 412L103 435Z" fill="#844ce6" stroke="#844ce6"></path><path d="M115 508L83 600L202 600Z" fill="#a77cef" stroke="#a77cef"></path><path d="M692 467L739 418L627 415Z" fill="#a77cef" stroke="#a77cef"></path><path d="M719 338L774 268L611 277Z" fill="#a77cef" stroke="#a77cef"></path><path d="M464 600L599 600L488 514Z" fill="#6633c0" stroke="#6633c0"></path><path d="M776 494L764 416L739 418Z" fill="#7b3fe4" stroke="#7b3fe4"></path><path d="M78 0L0 79L133 78Z" fill="#6030b5" stroke="#6030b5"></path><path d="M764 416L774 268L719 338Z" fill="#844ce6" stroke="#844ce6"></path><path d="M774 268L768 166L696 175Z" fill="#844ce6" stroke="#844ce6"></path><path d="M723 139L702 0L585 68Z" fill="#844ce6" stroke="#844ce6"></path><path d="M776 494L739 418L692 467Z" fill="#9665eb" stroke="#9665eb"></path><path d="M739 418L764 416L719 338Z" fill="#743bd8" stroke="#743bd8"></path><path d="M772 86L702 0L723 139Z" fill="#592ca9" stroke="#592ca9"></path><path d="M0 538L83 600L115 508Z" fill="#9665eb" stroke="#9665eb"></path><path d="M768 166L772 86L723 139Z" fill="#6d37cc" stroke="#6d37cc"></path><path d="M900 122L772 86L768 166Z" fill="#844ce6" stroke="#844ce6"></path><path d="M78 0L0 0L0 79Z" fill="#9665eb" stroke="#9665eb"></path><path d="M0 412L0 538L103 435Z" fill="#8d58e9" stroke="#8d58e9"></path><path d="M599 600L691 600L614 494Z" fill="#6633c0" stroke="#6633c0"></path><path d="M691 600L776 494L692 467Z" fill="#8d58e9" stroke="#8d58e9"></path><path d="M900 385L900 298L774 268Z" fill="#592ca9" stroke="#592ca9"></path><path d="M772 86L765 0L702 0Z" fill="#9f70ed" stroke="#9f70ed"></path><path d="M0 538L0 600L83 600Z" fill="#9f70ed" stroke="#9f70ed"></path><path d="M900 385L774 268L764 416Z" fill="#9f70ed" stroke="#9f70ed"></path><path d="M774 268L900 182L768 166Z" fill="#743bd8" stroke="#743bd8"></path><path d="M772 86L900 0L765 0Z" fill="#6030b5" stroke="#6030b5"></path><path d="M900 298L900 182L774 268Z" fill="#592ca9" stroke="#592ca9"></path><path d="M691 600L795 600L776 494Z" fill="#6633c0" stroke="#6633c0"></path><path d="M900 469L900 385L764 416Z" fill="#9f70ed" stroke="#9f70ed"></path><path d="M900 469L764 416L776 494Z" fill="#6030b5" stroke="#6030b5"></path><path d="M900 182L900 122L768 166Z" fill="#743bd8" stroke="#743bd8"></path><path d="M900 600L900 469L776 494Z" fill="#8d58e9" stroke="#8d58e9"></path><path d="M900 122L900 0L772 86Z" fill="#a77cef" stroke="#a77cef"></path><path d="M795 600L900 600L776 494Z" fill="#743bd8" stroke="#743bd8"></path>
  <path d="M72.863 42.949c-.668-.387-1.426-.59-2.197-.59s-1.529.204-2.197.59l-10.081 6.032-6.85 3.934-10.081 6.032c-.668.387-1.426.59-2.197.59s-1.529-.204-2.197-.59l-8.013-4.721a4.52 4.52 0 0 1-1.589-1.616c-.384-.665-.594-1.418-.608-2.187v-9.31c-.013-.775.185-1.538.572-2.208a4.25 4.25 0 0 1 1.625-1.595l7.884-4.59c.668-.387 1.426-.59 2.197-.59s1.529.204 2.197.59l7.884 4.59a4.52 4.52 0 0 1 1.589 1.616c.384.665.594 1.418.608 2.187v6.032l6.85-4.065v-6.032c.013-.775-.185-1.538-.572-2.208a4.25 4.25 0 0 0-1.625-1.595L41.456 24.59c-.668-.387-1.426-.59-2.197-.59s-1.529.204-2.197.59l-14.864 8.655a4.25 4.25 0 0 0-1.625 1.595c-.387.67-.585 1.434-.572 2.208v17.441c-.013.775.185 1.538.572 2.208a4.25 4.25 0 0 0 1.625 1.595l14.864 8.655c.668.387 1.426.59 2.197.59s1.529-.204 2.197-.59l10.081-5.901 6.85-4.065 10.081-5.901c.668-.387 1.426-.59 2.197-.59s1.529.204 2.197.59l7.884 4.59a4.52 4.52 0 0 1 1.589 1.616c.384.665.594 1.418.608 2.187v9.311c.013.775-.185 1.538-.572 2.208a4.25 4.25 0 0 1-1.625 1.595l-7.884 4.721c-.668.387-1.426.59-2.197.59s-1.529-.204-2.197-.59l-7.884-4.59a4.52 4.52 0 0 1-1.589-1.616c-.385-.665-.594-1.418-.608-2.187v-6.032l-6.85 4.065v6.032c-.013.775.185 1.538.572 2.208a4.25 4.25 0 0 0 1.625 1.595l14.864 8.655c.668.387 1.426.59 2.197.59s1.529-.204 2.197-.59l14.864-8.655c.657-.394 1.204-.95 1.589-1.616s.594-1.418.609-2.187V55.538c.013-.775-.185-1.538-.572-2.208a4.25 4.25 0 0 0-1.625-1.595l-14.993-8.786z" fill="#fff"/>
	<text x="32.5" y="231" font-size="32" fill="#fff" filter="url(#A)" font-family="Plus Jakarta Sans,DejaVu Sans,Noto Color Emoji,Apple Color Emoji,sans-serif" font-weight="bold">
		.tetas
	</text>
</svg>